<?xml version="1.0" encoding="UTF-8"?>
<svg width="44px" height="40px" viewBox="0 0 44 40" version="1.1" xmlns="http://www.w3.org/2000/svg" xmlns:xlink="http://www.w3.org/1999/xlink">
    <!-- Generator: Sketch 56.2 (81672) - https://sketch.com -->
    <title>BU_airport transfer</title>
    <desc>Created with Sketch.</desc>
    <g id="v7.0基础规范" stroke="none" stroke-width="1" fill="none" fill-rule="evenodd">
        <g id="icon" transform="translate(-765.000000, -2160.000000)" fill-rule="nonzero">
            <g id="BU_airport-transfer" transform="translate(764.000000, 2157.000000)">
                <rect id="矩形" x="0" y="0" width="48" height="48"></rect>
                <path d="M40,25 L44.1428571,25 L45,29 L43,29 L43,39 L43,43 L37,43 L37,39 L13,39 L13,43 L7,43 L7,39 L7,29 L5,29 L5.85714286,25 L10,25 L16,17 L34,17 L40,25 Z M18.0434783,20.4666667 L13.6956522,25.6666667 L36.3043478,25.6666667 L31.9565217,20.4666667 L18.0434783,20.4666667 Z M31.7191338,30.9082697 C31.1540789,31.4108057 30.846235,32.3621102 31.8935366,32.7003889 C32.9408382,33.0386676 35.9741016,33.0049757 37.4010564,32.5014747 C38.8280111,31.9979736 38.9511129,31.0356858 38.8288776,30.1559569 C38.7066423,29.2762279 37.8587243,28.6253316 36.7164038,28.8865303 C35.5740833,29.1477291 32.2841887,30.4057337 31.7191338,30.9082697 Z M18.2808662,30.9082697 C17.7158113,30.4057337 14.4259167,29.1477291 13.2835962,28.8865303 C12.1412757,28.6253316 11.2933577,29.2762279 11.1711224,30.1559569 C11.0488871,31.0356858 11.1719889,31.9979736 12.5989436,32.5014747 C14.0258984,33.0049757 17.0591618,33.0386676 18.1064634,32.7003889 C19.153765,32.3621102 18.8459211,31.4108057 18.2808662,30.9082697 Z M14.3775266,9.39287375 L9.37194131,4.5224592 L11.8300018,3.17363976 L21.1437501,7.57986963 L30.051557,5.19302995 C31.4741333,4.81185179 32.9363652,5.65607176 33.3175434,7.07864803 C33.6987215,8.50122431 32.8545016,9.96345619 31.4319253,10.3446344 L8.96216139,16.3653894 C7.89588518,16.6510973 6.80733012,16.248366 6.16842388,15.4296633 L6.13455746,15.4548707 L1.0497916,10.2233789 L3.33432235,8.21422031 L8.35281718,11.0071898 L14.3775266,9.39287375 Z" id="Combined-Shape" fill="#0F294D"></path>
            </g>
        </g>
    </g>
</svg>